<svg width="30" height="24" viewBox="0 0 30 24" fill="none" xmlns="http://www.w3.org/2000/svg">
<path d="M13.275 18.8625L21.75 10.35L19.65 8.25L13.275 14.625L10.0875 11.4375L7.95 13.575L13.275 18.8625ZM3 24C2.175 24 1.46875 23.7063 0.88125 23.1188C0.29375 22.5312 0 21.825 0 21V3C0 2.175 0.29375 1.46875 0.88125 0.88125C1.46875 0.29375 2.175 0 3 0H12L15 3H27C27.825 3 28.5313 3.29375 29.1188 3.88125C29.7063 4.46875 30 5.175 30 6V21C30 21.825 29.7063 22.5312 29.1188 23.1188C28.5313 23.7063 27.825 24 27 24H3ZM3 21H27V6H13.7625L10.7625 3H3V21Z" fill="#111827"/>
</svg>
