<svg width="30" height="32" viewBox="0 0 30 32" fill="none" xmlns="http://www.w3.org/2000/svg">
<path d="M3 9.14286H24V6.09524H3V9.14286ZM3 30.4762C2.175 30.4762 1.46875 30.1778 0.88125 29.581C0.29375 28.9841 0 28.2667 0 27.4286V6.09524C0 5.25714 0.29375 4.53968 0.88125 3.94286C1.46875 3.34603 2.175 3.04762 3 3.04762H4.5V0H7.5V3.04762H19.5V0H22.5V3.04762H24C24.825 3.04762 25.5313 3.34603 26.1188 3.94286C26.7063 4.53968 27 5.25714 27 6.09524V14.7429C26.525 14.5143 26.0375 14.3238 25.5375 14.1714C25.0375 14.019 24.525 13.9048 24 13.8286V12.1905H3V27.4286H12.45C12.625 27.9873 12.8313 28.5206 13.0688 29.0286C13.3063 29.5365 13.5875 30.019 13.9125 30.4762H3ZM17.1938 29.7714C15.7313 28.2857 15 26.4889 15 24.381C15 22.273 15.7313 20.4762 17.1938 18.9905C18.6562 17.5048 20.425 16.7619 22.5 16.7619C24.575 16.7619 26.3438 17.5048 27.8063 18.9905C29.2688 20.4762 30 22.273 30 24.381C30 26.4889 29.2688 28.2857 27.8063 29.7714C26.3438 31.2571 24.575 32 22.5 32C20.425 32 18.6562 31.2571 17.1938 29.7714ZM25.0125 28L26.0625 26.9333L23.25 24.0762V19.8095H21.75V24.6857L25.0125 28Z" fill="url(#paint0_linear_12552_20669)"/>
<defs>
<linearGradient id="paint0_linear_12552_20669" x1="15" y1="0" x2="15" y2="32" gradientUnits="userSpaceOnUse">
<stop offset="0.0384615" stop-color="#00203A"/>
<stop offset="0.216346" stop-color="#000509"/>
</linearGradient>
</defs>
</svg>
